<svg width="170" height="168" viewBox="0 0 170 168" fill="none" xmlns="http://www.w3.org/2000/svg">
<path d="M82.8306 165.846V3.23071H169.415V24.9845H108.246C107.384 24.9845 106.738 25.1999 106.307 25.6307C105.733 26.2051 105.446 26.8512 105.446 27.5692V62.4614H169.415V83.7845H105.446V165.846H82.8306Z" fill="black"/>
<path d="M82.6153 168C62.9435 167.856 47.4358 162.687 36.0922 152.492C24.7487 142.297 18.7897 128.154 18.2153 110.061H43.1999C43.9179 123.272 47.8666 132.82 55.0461 138.708C62.3691 144.595 71.5589 147.467 82.6153 147.323C93.5281 147.323 102.359 145.241 109.108 141.077C115.856 137.056 119.302 130.954 119.446 122.769C119.733 115.302 116.574 109.559 109.969 105.538C103.508 101.661 91.8768 97.4256 75.0768 92.8307C56.9845 87.6615 43.7743 81.6307 35.4461 74.7384C27.1179 67.7025 23.0256 57.5076 23.1692 44.1538C24.0307 30.8 29.7025 20.1743 40.1845 12.2769C50.6666 4.23589 64.0204 0.143588 80.246 0C98.0512 0.143588 112.554 4.88204 123.754 14.2154C134.81 23.5487 140.841 36.7589 141.846 53.8461H116.215C116.072 43.2205 112.913 34.9641 106.738 29.0769C100.564 23.3333 92.0204 20.3897 81.1076 20.2461C72.0614 20.2461 64.3076 22.2564 57.8461 26.2769C51.5281 30.2974 48.2256 36.7589 47.9384 45.6615C47.7948 52.123 51.3127 57.4359 58.4922 61.5999C65.6717 65.6205 77.0871 70.1435 92.7383 75.1692C110.974 80.482 124.041 86.3692 131.938 92.8307C139.979 99.4358 144 108.841 144 121.046C143.569 136.841 137.538 148.615 125.908 156.369C114.277 164.123 99.846 168 82.6153 168Z" fill="#EDB14C"/>
<path d="M22.161 116.038L21.0781 116.597V117.815V163.846H2.98462V5.23071H62.7368C74.4062 5.51144 83.9764 9.49137 91.588 17.1343C99.1961 24.7738 103.162 34.3812 103.446 46.0975C103.303 53.6374 101.395 60.3721 97.7475 66.3495C93.9095 72.2606 88.6833 77.4503 82.0255 81.9071C72.6361 88.1926 62.8896 94.1218 52.7857 99.6947C42.6488 105.286 32.4406 110.734 22.161 116.038ZM21.0781 93.046V96.2881L23.9755 94.8334C32.0005 90.8044 40.3101 86.4885 48.9043 81.886C57.5511 77.2554 65.699 72.2601 73.3466 66.8991L73.3643 66.8867L73.3818 66.8739C81.1962 61.1398 85.3526 54.1311 85.3526 45.8768V45.8525L85.352 45.8283C85.1976 39.4719 83.0153 34.0885 78.7637 29.8194C74.502 25.5401 69.0599 23.3551 62.5939 23.2005L62.57 23.1999H62.5461H25.6521C24.5023 23.1999 23.4366 23.557 22.5184 24.2485L22.4048 24.334L22.3045 24.4348C21.4354 25.3075 21.0781 26.4251 21.0781 27.5692V93.046Z" fill="white" stroke="black" stroke-width="4"/>
</svg>
