<svg width="243" height="243" viewBox="0 0 243 243" fill="none" xmlns="http://www.w3.org/2000/svg">
<rect width="243" height="243" fill="#FEFEFE"/>
<path d="M118.831 202.846V40.2307H205.415V61.9845H144.246C143.384 61.9845 142.738 62.1999 142.307 62.6307C141.733 63.2051 141.446 63.8512 141.446 64.5692V99.4614H205.415V120.784H141.446V202.846H118.831Z" fill="black"/>
<path d="M118.615 205C98.9435 204.856 83.4358 199.687 72.0922 189.492C60.7487 179.297 54.7897 165.154 54.2153 147.061H79.1999C79.9179 160.272 83.8666 169.82 91.0461 175.708C98.3691 181.595 107.559 184.467 118.615 184.323C129.528 184.323 138.359 182.241 145.108 178.077C151.856 174.056 155.302 167.954 155.446 159.769C155.733 152.302 152.574 146.559 145.969 142.538C139.508 138.661 127.877 134.426 111.077 129.831C92.9845 124.661 79.7743 118.631 71.4461 111.738C63.1179 104.703 59.0256 94.5076 59.1692 81.1538C60.0307 67.8 65.7025 57.1743 76.1845 49.2769C86.6666 41.2359 100.02 37.1436 116.246 37C134.051 37.1436 148.554 41.882 159.754 51.2154C170.81 60.5487 176.841 73.7589 177.846 90.8461H152.215C152.072 80.2205 148.913 71.9641 142.738 66.0769C136.564 60.3333 128.02 57.3897 117.108 57.2461C108.061 57.2461 100.308 59.2564 93.8461 63.2769C87.5281 67.2974 84.2256 73.7589 83.9384 82.6615C83.7948 89.123 87.3127 94.4359 94.4922 98.5999C101.672 102.62 113.087 107.144 128.738 112.169C146.974 117.482 160.041 123.369 167.938 129.831C175.979 136.436 180 145.841 180 158.046C179.569 173.841 173.538 185.615 161.908 193.369C150.277 201.123 135.846 205 118.615 205Z" fill="#EDB14C"/>
<path d="M58.161 153.038L57.0781 153.597V154.815V200.846H38.9846V42.2307H98.7368C110.406 42.5114 119.976 46.4914 127.588 54.1343C135.196 61.7738 139.162 71.3812 139.446 83.0975C139.303 90.6374 137.395 97.3721 133.748 103.349C129.91 109.261 124.683 114.45 118.026 118.907C108.636 125.193 98.8896 131.122 88.7857 136.695C78.6488 142.286 68.4406 147.734 58.161 153.038ZM57.0781 130.046V133.288L59.9755 131.833C68.0005 127.804 76.3101 123.489 84.9043 118.886C93.5511 114.255 101.699 109.26 109.347 103.899L109.364 103.887L109.382 103.874C117.196 98.1398 121.353 91.1311 121.353 82.8768V82.8525L121.352 82.8283C121.198 76.4719 119.015 71.0885 114.764 66.8194C110.502 62.5401 105.06 60.3551 98.5939 60.2005L98.57 60.1999H98.5461H61.6521C60.5023 60.1999 59.4366 60.557 58.5184 61.2485L58.4048 61.334L58.3045 61.4348C57.4354 62.3075 57.0781 63.4251 57.0781 64.5692V130.046Z" fill="white" stroke="black" stroke-width="4"/>
</svg>
